<?xml version="1.0" standalone="no"?>
<!DOCTYPE svg PUBLIC "-//W3C//DTD SVG 20010904//EN"
 "http://www.w3.org/TR/2001/REC-SVG-20010904/DTD/svg10.dtd">
<svg version="1.0" xmlns="http://www.w3.org/2000/svg"
 width="282.664828pt" height="176.405446pt" viewBox="0 0 282.664828 176.405446"
 preserveAspectRatio="xMidYMid meet">
<metadata>
Created by potrace 1.12, written by Peter Selinger 2001-2015
</metadata>
<g transform="translate(-108.084088,336.500000) scale(0.100000,-0.100000)"
fill="#e0a80d" stroke="none">
<path d="M1520 3349 c0 -13 15 -17 80 -22 90 -6 121 -20 147 -70 15 -27 18
-71 21 -309 l4 -278 99 0 98 0 3 284 c3 270 4 286 24 313 30 40 68 56 151 61
59 4 73 8 73 21 0 14 -34 16 -350 16 -315 0 -350 -2 -350 -16z"/>
<path d="M2773 3358 c-10 -18 11 -26 79 -30 86 -6 131 -26 155 -71 16 -28 18
-67 21 -309 l4 -278 98 0 99 0 3 288 c3 257 5 290 21 313 24 36 61 50 149 57
52 5 73 11 73 21 0 11 -59 14 -348 15 -192 0 -351 -2 -354 -6z"/>
<path d="M2537 2669 c-111 -26 -208 -98 -206 -152 l1 -32 8 29 c20 64 117 125
235 147 62 11 119 0 129 -27 16 -42 -64 -128 -151 -163 -55 -22 -63 -14 -46
49 7 30 19 58 26 62 6 4 8 10 5 13 -13 14 -28 -8 -44 -63 -20 -68 -20 -68 -39
-52 -12 10 -16 9 -21 -3 -7 -20 3 -37 22 -37 12 0 14 -7 9 -32 -4 -18 -13 -43
-21 -55 -18 -29 -18 -39 0 -23 8 6 20 27 26 46 l12 35 42 -46 c35 -37 49 -45
77 -45 37 0 79 32 79 60 0 9 -6 6 -16 -8 -39 -56 -93 -49 -144 21 l-30 41 50
17 c139 45 230 176 150 216 -28 14 -97 15 -153 2z"/>
<path d="M3226 2579 c-9 -13 -28 -61 -42 -106 -24 -78 -27 -83 -68 -102 -51
-25 -56 -26 -56 -6 0 8 -10 25 -21 36 -19 19 -20 25 -10 41 22 36 6 28 -49
-24 -58 -54 -103 -78 -145 -78 -19 0 -31 10 -47 36 l-21 36 -20 -36 c-24 -41
-40 -47 -35 -14 2 12 18 33 37 45 28 19 30 23 13 23 -24 0 -72 -54 -72 -81 0
-30 28 -34 55 -9 23 22 26 22 43 7 26 -23 90 -21 131 4 l33 20 20 -20 c24 -27
79 -27 137 -1 54 25 54 25 47 -5 -4 -14 -3 -25 2 -25 5 0 19 11 32 25 28 30
44 31 70 5 25 -25 55 -25 103 -1 l38 19 25 -25 c21 -21 32 -25 64 -20 22 3 52
14 69 26 36 26 39 26 43 -1 4 -32 33 -34 63 -3 l26 26 30 -26 c17 -14 43 -25
57 -25 33 0 102 31 121 53 19 23 6 21 -29 -4 -16 -13 -50 -24 -78 -27 -46 -4
-52 -2 -67 22 -17 26 -17 28 19 104 36 78 44 116 26 127 -27 17 -80 -95 -80
-169 0 -23 -3 -27 -12 -18 -19 19 -37 14 -100 -28 -91 -61 -163 -54 -152 14 4
26 3 28 -6 13 -14 -21 -82 -57 -110 -57 -11 0 -34 10 -51 22 -25 19 -33 20
-49 10 -41 -25 -40 -10 5 66 46 76 57 115 41 138 -12 16 -14 15 -30 -7z m-1
-84 c-14 -32 -28 -55 -31 -52 -7 7 12 70 34 112 28 53 25 3 -3 -60z m510 -2
l-26 -48 7 40 c3 22 13 53 22 68 30 50 27 -5 -3 -60z m-711 -98 c21 -16 15
-45 -9 -45 -8 0 -24 5 -35 12 -18 11 -18 14 -3 30 19 21 22 22 47 3z m649 -1
c9 -9 -23 -54 -39 -54 -15 0 -18 18 -8 44 6 16 35 22 47 10z"/>
<path d="M1106 2399 c-28 -32 -29 -38 -20 -63 8 -22 23 -20 51 6 21 20 24 20
41 5 25 -23 84 -21 133 4 l41 20 -7 -20 c-9 -29 1 -26 43 10 33 30 36 30 49
13 7 -10 13 -25 13 -33 0 -10 10 -5 30 14 l31 29 22 -28 c39 -48 118 -34 173
31 16 18 29 24 50 21 l29 -4 -27 -14 c-30 -14 -37 -30 -14 -30 29 0 26 -20 -9
-68 -54 -76 -58 -140 -6 -113 31 17 63 78 70 134 l6 52 62 0 c54 0 63 -3 65
-19 4 -28 24 -30 47 -7 25 25 28 25 47 6 24 -24 91 -19 141 10 23 14 43 30 43
36 0 5 -24 -4 -53 -21 -30 -16 -65 -30 -79 -30 -25 0 -58 27 -58 48 0 26 -20
19 -39 -13 -11 -19 -25 -35 -31 -35 -19 0 -10 22 24 56 39 39 27 45 -24 11
-45 -31 -76 -38 -107 -26 -20 7 -30 6 -44 -7 -22 -20 -24 -13 -6 16 30 49 -56
49 -108 1 -63 -60 -103 -65 -144 -20 -28 30 -30 30 -53 15 -23 -15 -27 -15
-38 -1 -16 20 -39 19 -62 -2 -17 -15 -18 -15 -18 6 0 20 -2 20 -41 -9 -72 -52
-141 -49 -155 5 -8 34 -17 31 -37 -10 -16 -33 -37 -47 -37 -24 0 21 21 49 48
63 25 14 25 15 5 16 -12 0 -32 -13 -47 -31z m660 -147 c-18 -34 -43 -62 -57
-62 -12 0 14 62 43 103 21 30 23 30 26 10 2 -12 -4 -35 -12 -51z"/>
<path d="M1768 1962 c-6 -298 -15 -315 -172 -329 -52 -4 -76 -10 -76 -19 0
-10 70 -13 350 -13 281 0 350 3 350 13 0 9 -24 15 -80 20 -96 8 -121 18 -146
59 -17 29 -19 56 -22 260 l-3 227 -98 0 -98 0 -5 -218z"/>
<path d="M3030 1991 c0 -212 -10 -285 -43 -318 -24 -24 -100 -43 -173 -43 -32
0 -44 -4 -44 -15 0 -12 51 -14 355 -14 285 0 355 3 355 13 0 9 -24 15 -79 19
-100 8 -126 20 -151 72 -18 37 -20 61 -20 258 l0 217 -100 0 -100 0 0 -189z"/>
</g>
</svg>
